<?xml version="1.0" encoding="utf-8"?>
<!-- Generator: Adobe Illustrator 17.1.0, SVG Export Plug-In . SVG Version: 6.00 Build 0)  -->
<!DOCTYPE svg PUBLIC "-//W3C//DTD SVG 1.1//EN" "http://www.w3.org/Graphics/SVG/1.1/DTD/svg11.dtd">
<svg version="1.1" id="Layer_1" xmlns="http://www.w3.org/2000/svg" xmlns:xlink="http://www.w3.org/1999/xlink" x="0px" y="0px"
	 viewBox="0 0 326.3 152.5" enable-background="new 0 0 326.3 152.5" xml:space="preserve">
<polygon fill="#6998B5" points="39,139.3 67.9,72.4 85.1,48.4 103.3,30 122.5,49 147.1,77.9 191.5,139.3 "/>
<polygon fill="#FFFFFF" points="92.3,41.2 99.5,39.6 108.3,49.3 109.2,42 114.2,43.6 114.2,40.8 103.3,30 "/>
<polygon fill="#6390A8" points="39,139.3 67.9,72.4 85.1,48.4 103.3,30 132,139.3 "/>
<polygon fill="#E8EDF0" points="92.3,41.2 99.5,39.6 108.3,49.3 103.3,30 "/>
<polygon fill="#608AA5" points="64.9,87.2 124.9,62.6 154.2,12.3 174.3,0 187.8,32.5 200.8,43.6 207.8,60.8 235.7,139.3 39.3,139.3 
	"/>
<polygon fill="#FFFFFF" points="150.5,18.7 157.4,15.1 157.6,30.2 167.5,13 172.8,24.8 176.6,18 181.5,23.2 181.5,17.3 174.3,0 
	154.2,12.3 "/>
<polygon fill="#598399" points="169.5,77.5 174.3,0 154.3,12.3 125,62.6 63.7,87.8 39.3,139.3 187.1,139.2 "/>
<polygon fill="#72A7C0" points="8.3,139.3 35.3,57 59.1,32.6 76.7,53.3 138,139.3 "/>
<polygon fill="#6998B5" points="178.4,139.3 212,42.3 224.1,42.3 242.7,26.3 313.8,139.3 "/>
<path fill="#6DA0B5" d="M59,32.6L35.3,57l-27,82.3c3.1,0,71.8,0,71.8,0L59,32.6z"/>
<polygon fill="#FFFFFF" points="35.3,57 52.5,49.6 55,57 61.9,47.1 69.6,61.5 69.6,51 76.7,53.3 59.1,32.6 "/>
<polygon fill="#ECF1F4" points="35.3,57 52.5,49.6 55,57 61.9,47.1 59.1,32.6 "/>
<polygon fill="#E6EBEE" points="150.6,18.7 157.5,15.1 157.6,30.2 167.6,13 172.8,24.8 174.3,0 154.3,12.3 "/>
<polygon fill="#FFFFFF" points="209.9,48.4 217.6,44.5 224.9,52.5 236.7,41.5 246.9,56.4 247.3,44.8 251.8,47.5 249.1,39.4 
	252.4,41.9 242.7,26.3 224,42.4 211.9,42.4 "/>
<path fill="#6390A8" d="M242.7,26.3l-18.7,16h-12.1l-33.6,97c-0.1,0.1,80.4,0,80.4,0L242.7,26.3z"/>
<polygon fill="#E8EDF0" points="209.9,48.3 217.7,44.4 225,52.4 236.7,41.4 247,56.4 242.7,26.3 224.1,42.3 211.9,42.3 "/>
<g>
	<rect x="291" y="141.3" fill="#77491D" width="2.3" height="11.2"/>
	<rect x="300.8" y="141.3" fill="#77491D" width="2.3" height="11.2"/>
	<rect x="313.5" y="141.2" fill="#77491D" width="2.3" height="11.2"/>
	<rect x="277.9" y="141.3" fill="#77491D" width="2.3" height="11.2"/>
	<polygon fill="#55BA5F" points="303,147.8 314.7,101.7 326.3,147.8 	"/>
	<polygon fill="#55BA5F" points="266.2,146.4 277.9,98.8 289.6,146.4 	"/>
	<polygon fill="#2C8E44" points="289.4,140.5 302,70.8 314.5,140.5 	"/>
	<polygon fill="#35A54B" points="275.9,144 292.2,82.2 308.4,144 	"/>
</g>
<g>
	<rect x="223.8" y="141.4" fill="#77491D" width="2.3" height="11.2"/>
	<rect x="238.4" y="141.3" fill="#77491D" width="2.3" height="11.2"/>
	<polygon fill="#55BA5F" points="213.3,145.9 224.9,99.8 236.6,145.9 	"/>
	<rect x="249.8" y="141.3" fill="#77491D" width="2.3" height="11.2"/>
	<polygon fill="#35A54B" points="239.3,144 251,99.8 262.6,144 	"/>
	<polygon fill="#2C8E44" points="227,147.8 239.6,80.9 252.1,147.8 	"/>
</g>
<g>
	<rect x="113.4" y="141.3" fill="#77491D" width="2.3" height="11.2"/>
	<polygon fill="#35A54B" points="102.9,143.2 114.6,97.1 126.2,143.2 	"/>
</g>
<g>
	<rect x="27.9" y="141.3" fill="#77491D" width="2.3" height="11.2"/>
	<rect x="18.4" y="141.3" fill="#77491D" width="2.3" height="11.2"/>
	<rect x="40.2" y="141.3" fill="#77491D" width="2.3" height="11.2"/>
	<polygon fill="#2C8E44" points="29.4,145.9 41.4,109.6 53.3,145.9 	"/>
	<polygon fill="#35A54B" points="8.6,140.6 20.3,81 31.9,140.6 	"/>
	<rect x="10" y="141.3" fill="#77491D" width="2.3" height="11.2"/>
	<polygon fill="#2C8E44" points="0,143.8 11.1,107.8 22.2,143.8 	"/>
	<polygon fill="#55BA5F" points="16.8,147.7 29.1,97.9 41.3,147.7 	"/>
</g>
</svg>
