<?xml version="1.0" encoding="utf-8"?>
<!-- Generator: Adobe Illustrator 17.1.0, SVG Export Plug-In . SVG Version: 6.00 Build 0)  -->
<!DOCTYPE svg PUBLIC "-//W3C//DTD SVG 1.1//EN" "http://www.w3.org/Graphics/SVG/1.1/DTD/svg11.dtd">
<svg version="1.1" id="Layer_1" xmlns="http://www.w3.org/2000/svg" xmlns:xlink="http://www.w3.org/1999/xlink" x="0px" y="0px"
	 viewBox="0 0 345.2 185.8" enable-background="new 0 0 345.2 185.8" xml:space="preserve">
<polygon fill="#6998B5" points="48.9,155.7 77.8,88.8 95,64.9 113.2,46.4 132.4,65.5 157,94.3 201.4,155.7 "/>
<polygon fill="#FFFFFF" points="102.2,57.6 109.4,56.1 118.2,65.7 119.1,58.5 124.1,60.1 124.1,57.3 113.2,46.4 "/>
<polygon fill="#6390A8" points="48.9,155.7 77.8,88.8 95,64.9 113.2,46.4 141.9,155.7 "/>
<polygon fill="#E8EDF0" points="102.2,57.6 109.4,56.1 118.2,65.7 113.2,46.4 "/>
<polygon fill="#608AA5" points="74.8,103.6 134.8,79.1 164.1,28.7 184.2,16.4 197.7,49 210.7,60 217.7,77.2 245.6,155.7 49.2,155.7 
	"/>
<polygon fill="#FFFFFF" points="160.4,35.1 167.3,31.5 167.5,46.6 177.4,29.4 182.7,41.2 186.5,34.4 191.4,39.6 191.4,33.8 
	184.2,16.4 164.1,28.7 "/>
<polygon fill="#598399" points="179.4,93.9 184.2,16.4 164.2,28.7 134.9,79.1 73.6,104.3 49.2,155.7 197,155.6 "/>
<polygon fill="#72A7C0" points="18.2,155.7 45.2,73.4 69,49.1 86.7,69.8 147.9,155.7 "/>
<polygon fill="#6998B5" points="188.3,155.7 221.9,58.7 234,58.7 252.6,42.7 323.7,155.7 "/>
<path fill="#6DA0B5" d="M68.9,49.1L45.2,73.4l-27,82.3c3.1,0,71.8,0,71.8,0L68.9,49.1z"/>
<polygon fill="#FFFFFF" points="45.2,73.4 62.4,66.1 64.9,73.4 71.8,63.5 79.5,77.9 79.5,67.4 86.7,69.8 69,49.1 "/>
<polygon fill="#ECF1F4" points="45.2,73.4 62.4,66.1 64.9,73.4 71.8,63.5 69,49.1 "/>
<polygon fill="#E6EBEE" points="160.5,35.1 167.4,31.5 167.5,46.6 177.5,29.4 182.7,41.2 184.2,16.4 164.2,28.7 "/>
<polygon fill="#FFFFFF" points="219.8,64.8 227.5,60.9 234.8,68.9 246.6,57.9 256.9,72.9 257.2,61.3 261.7,63.9 259,55.9 
	262.3,58.3 252.6,42.7 233.9,58.8 221.8,58.8 "/>
<path fill="#6390A8" d="M252.6,42.7l-18.7,16h-12.1l-33.6,97c-0.1,0.1,80.4,0,80.4,0L252.6,42.7z"/>
<polygon fill="#E8EDF0" points="219.8,64.8 227.6,60.8 234.9,68.9 246.6,57.9 256.9,72.8 252.6,42.7 234,58.7 221.9,58.7 "/>
<g>
	<rect x="300.9" y="157.7" fill="#77491D" width="2.3" height="11.2"/>
	<rect x="310.7" y="157.7" fill="#77491D" width="2.3" height="11.2"/>
	<rect x="323.4" y="157.6" fill="#77491D" width="2.3" height="11.2"/>
	<rect x="287.8" y="157.7" fill="#77491D" width="2.3" height="11.2"/>
	<polygon fill="#55BA5F" points="312.9,164.2 324.6,118.1 336.2,164.2 	"/>
	<polygon fill="#55BA5F" points="276.1,162.8 287.8,115.2 299.5,162.8 	"/>
	<polygon fill="#2C8E44" points="299.3,156.9 311.9,87.2 324.4,156.9 	"/>
	<polygon fill="#35A54B" points="285.8,160.4 302.1,98.7 318.3,160.4 	"/>
</g>
<g>
	<rect x="233.7" y="157.8" fill="#77491D" width="2.3" height="11.2"/>
	<rect x="248.3" y="157.7" fill="#77491D" width="2.3" height="11.2"/>
	<polygon fill="#55BA5F" points="223.2,162.3 234.8,116.2 246.5,162.3 	"/>
	<rect x="259.7" y="157.7" fill="#77491D" width="2.3" height="11.2"/>
	<polygon fill="#35A54B" points="249.2,160.4 260.9,116.2 272.6,160.4 	"/>
	<polygon fill="#2C8E44" points="236.9,164.2 249.5,97.3 262,164.2 	"/>
</g>
<g>
	<rect x="123.3" y="157.7" fill="#77491D" width="2.3" height="11.2"/>
	<polygon fill="#35A54B" points="112.8,159.6 124.5,113.5 136.1,159.6 	"/>
</g>
<g>
	<rect x="37.8" y="157.7" fill="#77491D" width="2.3" height="11.2"/>
	<rect x="28.3" y="157.7" fill="#77491D" width="2.3" height="11.2"/>
	<rect x="50.1" y="157.7" fill="#77491D" width="2.3" height="11.2"/>
	<polygon fill="#2C8E44" points="39.3,162.3 51.3,126 63.2,162.3 	"/>
	<polygon fill="#35A54B" points="18.5,157 30.2,97.4 41.8,157 	"/>
	<rect x="19.9" y="157.7" fill="#77491D" width="2.3" height="11.2"/>
	<polygon fill="#2C8E44" points="9.9,160.2 21,124.3 32.1,160.2 	"/>
	<polygon fill="#55BA5F" points="26.7,164.1 39,114.3 51.2,164.1 	"/>
</g>
</svg>
