<?xml version="1.0" encoding="utf-8"?>
<!-- Generator: Adobe Illustrator 17.1.0, SVG Export Plug-In . SVG Version: 6.00 Build 0)  -->
<!DOCTYPE svg PUBLIC "-//W3C//DTD SVG 1.1//EN" "http://www.w3.org/Graphics/SVG/1.1/DTD/svg11.dtd">
<svg version="1.1" id="Layer_1" xmlns="http://www.w3.org/2000/svg" xmlns:xlink="http://www.w3.org/1999/xlink" x="0px" y="0px"
	 viewBox="0 0 100.4 100.4" enable-background="new 0 0 100.4 100.4" xml:space="preserve">
<g>
	<g>
		<rect x="75.6" y="35.1" fill="#55BA5F" width="2.6" height="3.6"/>
		<rect x="75.6" y="40.8" fill="#55BA5F" width="2.6" height="2.1"/>
		<polygon fill="#55BA5F" points="78.2,67.6 78.2,44.9 75.6,44.9 75.6,67.6 76.9,70.1 		"/>
	</g>
	<g>
		<path fill="#55BA5F" d="M24.2,71.4v-2.1c-0.3,0.3-0.4,0.7-0.4,1.1C23.8,70.8,23.9,71.1,24.2,71.4z"/>
		<path fill="#55BA5F" d="M24.2,53.8v-2.1c-0.3,0.3-0.4,0.7-0.4,1.1C23.8,53.2,23.9,53.5,24.2,53.8z"/>
		<path fill="#55BA5F" d="M24.2,45v-2.1c-0.3,0.3-0.4,0.7-0.4,1.1C23.8,44.4,23.9,44.7,24.2,45z"/>
		<path fill="#55BA5F" d="M24.2,36.2v-2.1c-0.3,0.3-0.4,0.7-0.4,1.1C23.8,35.6,23.9,35.9,24.2,36.2z"/>
		<path fill="#55BA5F" d="M24.2,62.6v-2.1c-0.3,0.3-0.4,0.7-0.4,1.1C23.8,62,23.9,62.3,24.2,62.6z"/>
		<polygon fill="#55BA5F" points="65.2,76.6 28.8,76.6 29.9,77.7 66.3,77.7 66.3,25.1 65.2,24.2 		"/>
		<path fill="#55BA5F" d="M24.2,27.4v-2.1c-0.3,0.3-0.4,0.7-0.4,1.1C23.8,26.8,23.9,27.1,24.2,27.4z"/>
		<path fill="#55BA5F" d="M50.2,0C22.5,0,0,22.5,0,50.2s22.5,50.2,50.2,50.2c27.7,0,50.2-22.5,50.2-50.2S77.9,0,50.2,0z M68.3,79.8
			H29.1l-3.3-3.1h-1.6v-2.6c-1.5-0.7-2.5-2.1-2.5-3.6c0-1.6,1-2.9,2.5-3.6v-1.5c-1.5-0.7-2.5-2.1-2.5-3.6c0-1.6,1-2.9,2.5-3.6v-1.5
			c-1.5-0.7-2.5-2.1-2.5-3.6c0-1.6,1-2.9,2.5-3.6v-1.5c-1.5-0.7-2.5-2.1-2.5-3.6c0-1.6,1-3,2.5-3.7v-1.5c-1.5-0.7-2.5-2.1-2.5-3.6
			c0-1.6,1-3,2.5-3.7v-1.5c-1.5-0.7-2.5-2.1-2.5-3.6c0-1.6,1-3,2.5-3.7v-1.2h41v0.2l0.1-0.1l3,2.5V79.8z M80.3,68l-3.4,6.7L73.5,68
			V33h6.8V68z"/>
		<path fill="#55BA5F" d="M63.1,23.6H29.9c0.7,0.7,1.2,1.6,1.2,2.6H29c0-1-1.2-1.9-2.6-1.9c0,0-0.1,0-0.1,0v4.1v2.1v0.5
			c0,0,0.1,0,0.1,0c2.6,0,4.7,1.9,4.7,4H29c0-1-1.2-1.9-2.6-1.9c0,0-0.1,0-0.1,0v4.1v2.1v0.6c0,0,0.1,0,0.1,0c2.6,0,4.7,1.9,4.7,4
			H29c0-1-1.2-1.9-2.6-1.9c0,0-0.1,0-0.1,0v4.1v2.1v0.6c0,0,0.1,0,0.1,0c2.6,0,4.7,2,4.7,4H29c0-1-1.2-2-2.6-2c0,0-0.1,0-0.1,0v4.1
			v2.1v0.6c0,0,0.1,0,0.1,0c2.6,0,4.7,2,4.7,4H29c0-1-1.2-2-2.6-2c0,0-0.1,0-0.1,0v4v2.1v0.6c0,0,0.1,0,0.1,0c2.6,0,4.7,2,4.7,4.1
			H29c0-1-1.2-2-2.6-2c0,0-0.1,0-0.1,0v4v2.1v0h0.1l0.1-0.2l0.2,0.2h36.5V23.6z"/>
	</g>
</g>
</svg>
