<?xml version="1.0" encoding="utf-8"?>
<!-- Generator: Adobe Illustrator 17.1.0, SVG Export Plug-In . SVG Version: 6.00 Build 0)  -->
<!DOCTYPE svg PUBLIC "-//W3C//DTD SVG 1.1//EN" "http://www.w3.org/Graphics/SVG/1.1/DTD/svg11.dtd">
<svg version="1.1" id="Layer_1" xmlns="http://www.w3.org/2000/svg" xmlns:xlink="http://www.w3.org/1999/xlink" x="0px" y="0px"
	 viewBox="0 0 100.4 100.4" enable-background="new 0 0 100.4 100.4" xml:space="preserve">
<g>
	<rect x="19.2" y="26.8" fill="#55BA5F" width="2.1" height="2.6"/>
	<rect x="26" y="38.2" fill="#55BA5F" width="47.3" height="13"/>
	<rect x="60.3" y="60" fill="#55BA5F" width="13" height="14.5"/>
	<rect x="23.4" y="26.8" fill="#55BA5F" width="56.1" height="2.6"/>
	<path fill="#55BA5F" d="M50.2,0C22.5,0,0,22.5,0,50.2s22.5,50.2,50.2,50.2c27.7,0,50.2-22.5,50.2-50.2S77.9,0,50.2,0z M81.6,29.4
		v2.1v45.2h-6.2H58.2h-41V24.7h64.4V29.4z"/>
	<path fill="#55BA5F" d="M58.2,57.9h17.1v16.6h4.2V31.4H19.2v43.1h39V57.9z M23.9,36.1h51.4v17.1H23.9V36.1z M54,70.9H25v-2.1H54
		V70.9z M54,65.2H25v-2.1H54V65.2z M54,60H25v-2.1H54V60z"/>
</g>
</svg>
