<?xml version="1.0" encoding="utf-8"?>
<!-- Generator: Adobe Illustrator 17.1.0, SVG Export Plug-In . SVG Version: 6.00 Build 0)  -->
<!DOCTYPE svg PUBLIC "-//W3C//DTD SVG 1.1//EN" "http://www.w3.org/Graphics/SVG/1.1/DTD/svg11.dtd">
<svg version="1.1" id="Layer_1" xmlns="http://www.w3.org/2000/svg" xmlns:xlink="http://www.w3.org/1999/xlink" x="0px" y="0px"
	 viewBox="0 0 100.4 100.4" enable-background="new 0 0 100.4 100.4" xml:space="preserve">
<g>
	<rect x="21.5" y="30.9" fill="#55BA5F" width="57.1" height="26.5"/>
	<polygon fill="#55BA5F" points="59.6,68.8 43,68.8 44.3,75.4 39.7,79.2 62.8,79.2 58.2,75.4 	"/>
	<path fill="#55BA5F" d="M62.1,66.8h20.6v-40H17.3v40h23.2H62.1z M19.4,28.8h61.3v30.7H19.4V28.8z"/>
	<path fill="#55BA5F" d="M50.2,0C22.5,0,0,22.5,0,50.2s22.5,50.2,50.2,50.2s50.2-22.5,50.2-50.2S77.9,0,50.2,0z M84.9,68.8H61.7
		l-1.2,5.8l8,6.7H33.9l8.1-6.7l-1.2-5.8H15.3V24.7h69.6V68.8z"/>
</g>
</svg>
